<svg xmlns="http://www.w3.org/2000/svg" width="184.308" height="82.583" viewBox="0 0 184.308 82.583">
  <g id="affle_logo" transform="translate(-139.532 -46.846)">
    <g id="Group_24" data-name="Group 24" transform="translate(139.532 46.846)">
      <g id="Group_22" data-name="Group 22" transform="translate(124.641 0)">
        <path id="Path_32" data-name="Path 32" d="M927.031,122.223a2.7,2.7,0,1,0,.709,5.344,8.88,8.88,0,0,1,9.968,7.616,2.7,2.7,0,1,0,5.344-.726,14.238,14.238,0,0,0-16.021-12.229" transform="translate(-924.69 -110.163)" fill="#f4732b"/>
        <path id="Path_33" data-name="Path 33" d="M934.131,47.043a2.7,2.7,0,1,0,.7,5.344A17.875,17.875,0,0,1,954.9,67.693a2.688,2.688,0,0,0,5.328-.711,23.234,23.234,0,0,0-26.094-19.93" transform="translate(-930.658 -46.846)" fill="#f4732b"/>
      </g>
      <g id="Group_23" data-name="Group 23" transform="translate(0 28.225)">
        <path id="Path_34" data-name="Path 34" d="M921.57,282.28a12.9,12.9,0,0,1-13.242-13v-39a1.6,1.6,0,0,1,1.756-1.758h2.667a1.592,1.592,0,0,1,1.753,1.758v39a7.062,7.062,0,0,0,7.067,7.294,6.913,6.913,0,0,0,4.894-2c1.137-.96,1.937-1.043,2.971-.319l1.6,1.122a1.658,1.658,0,0,1,.328,2.488,12.492,12.492,0,0,1-9.793,4.41" transform="translate(-786.283 -227.927)" fill="#fff"/>
        <path id="Path_35" data-name="Path 35" d="M414.344,229.176a12.418,12.418,0,0,0-9.789-4.406,13.119,13.119,0,0,0-9.4,3.726,12.978,12.978,0,0,0-3.855,9.275v2.679a1.605,1.605,0,0,1-1.531.807h-1.778a1.6,1.6,0,0,0-1.764,1.765v1.756a1.6,1.6,0,0,0,1.764,1.76h1.776a1.624,1.624,0,0,1,1.529.794v29.416a1.614,1.614,0,0,0,1.786,1.767h2.633a1.7,1.7,0,0,0,1.378-.553,1.659,1.659,0,0,0,.6-1.4v-28.25a1.6,1.6,0,0,1,1.756-1.775h6.722a1.6,1.6,0,0,0,1.764-1.758v-1.762a1.6,1.6,0,0,0-1.764-1.765H399.47a1.594,1.594,0,0,1-1.756-1.762v-1.928a7.574,7.574,0,0,1,2.211-5.375,6.807,6.807,0,0,1,4.629-1.723,6.942,6.942,0,0,1,4.9,2.012,2.1,2.1,0,0,0,2.963.324l.171-.129,1.426-1.012a1.64,1.64,0,0,0,.341-2.488" transform="translate(-347.067 -224.765)" fill="#fff"/>
        <path id="Path_36" data-name="Path 36" d="M664.052,229.176a12.477,12.477,0,0,0-9.789-4.406,12.9,12.9,0,0,0-13.231,13v2.679a1.616,1.616,0,0,1-1.541.807H637.71a1.6,1.6,0,0,0-1.76,1.765v1.756a1.592,1.592,0,0,0,1.76,1.76h1.775a1.646,1.646,0,0,1,1.541.794v29.416a1.607,1.607,0,0,0,1.771,1.767h2.653a1.683,1.683,0,0,0,1.378-.553,1.658,1.658,0,0,0,.6-1.4v-28.25a1.609,1.609,0,0,1,1.764-1.775h5.928a1.605,1.605,0,0,0,1.771-1.758v-1.762a1.6,1.6,0,0,0-1.771-1.765h-5.928a1.607,1.607,0,0,1-1.763-1.762v-1.928a7.6,7.6,0,0,1,2.2-5.375,6.85,6.85,0,0,1,4.642-1.723,6.975,6.975,0,0,1,4.907,2.012,2.1,2.1,0,0,0,2.963.324l.171-.129,1.434-1.012a1.659,1.659,0,0,0,.319-2.488" transform="translate(-557.148 -224.766)" fill="#fff"/>
        <path id="Path_37" data-name="Path 37" d="M153.511,323.288c-.252,0-.494-.018-.737-.018h0a18.1,18.1,0,0,0-9.074,2.311,2.027,2.027,0,0,0-1.073,1.624,1.806,1.806,0,0,0,.184.789l1.052,1.843c.553.958,1.2,1.36,2.245.794a13.781,13.781,0,0,1,6.617-1.679h.048a7.045,7.045,0,0,1,7.047,7.29v1.935a1.581,1.581,0,0,1-1.741,1.753h-15a3.206,3.206,0,0,0-3.525,3.529v5.458a12.861,12.861,0,0,0,11.775,12.938,1.077,1.077,0,0,1,.216.017c.4.026.816.052,1.24.052h0c.468,0,.921-.037,1.36-.068l.256-.026c.4-.05.785-.1,1.166-.184a.215.215,0,0,0,.1-.031,12.251,12.251,0,0,0,4.1-1.548.737.737,0,0,1,1.126.319,1.43,1.43,0,0,0,1.281.726h2.077a1.612,1.612,0,0,0,1.775-1.773v-23.1a12.885,12.885,0,0,0-12.509-12.951m5.843,28.287c0,.031-.035.077-.046.123a1.31,1.31,0,0,1-.092.2,6.868,6.868,0,0,1-4.039,4.01,7.109,7.109,0,0,1-9.512-6.875V349a7.655,7.655,0,0,1,.837-3.45,1.942,1.942,0,0,1,.921-.212h10.589a2.037,2.037,0,0,1,.938.212,7.79,7.79,0,0,1,.827,3.487,8,8,0,0,1-.431,2.538" transform="translate(-139.532 -307.629)" fill="#fff"/>
        <path id="Path_38" data-name="Path 38" d="M1146.225,361.9c.241,0,.487.039.722.039h0a18.022,18.022,0,0,0,9.072-2.331,1.991,1.991,0,0,0,1.073-1.614,1.66,1.66,0,0,0-.185-.8l-1.047-1.843c-.566-.96-1.2-1.375-2.241-.815a13.679,13.679,0,0,1-6.634,1.694h-.046a7.058,7.058,0,0,1-7.062-7.3V347a1.6,1.6,0,0,1,1.762-1.758h15.028a3.2,3.2,0,0,0,3.516-3.525v-5.475a12.849,12.849,0,0,0-11.771-12.92h-.23c-.4-.037-.8-.052-1.237-.052h0c-.462,0-.921.02-1.369.057a1.122,1.122,0,0,0-.252.039c-.4.046-.78.09-1.168.168-.033.011-.061.011-.088.018a12.6,12.6,0,0,0-4.1,1.557.737.737,0,0,1-1.136-.317,1.367,1.367,0,0,0-1.263-.719h-2.1a1.6,1.6,0,0,0-1.756,1.758v23.114a12.846,12.846,0,0,0,12.5,12.957m-5.856-28.268a.258.258,0,0,0,.048-.14c.031-.063.066-.133.1-.2a6.9,6.9,0,0,1,4.019-4.01,7.712,7.712,0,0,1,2.467-.42,7.065,7.065,0,0,1,7.065,7.309v.052a7.712,7.712,0,0,1-.84,3.45,1.885,1.885,0,0,1-.921.206h-10.6a2.014,2.014,0,0,1-.936-.206,7.875,7.875,0,0,1-.826-3.5,7.709,7.709,0,0,1,.42-2.548" transform="translate(-975.893 -307.63)" fill="#fff"/>
      </g>
    </g>
  </g>
</svg>
