<svg id="logo-appnext-header2" xmlns="http://www.w3.org/2000/svg" width="190.32" height="50.977" viewBox="0 0 190.32 50.977">
  <g id="Group_1" data-name="Group 1" transform="translate(0 0)">
    <path id="Path_1" data-name="Path 1" d="M28.4,42.094l.038,7.232A3.594,3.594,0,0,0,32.054,52.9l7.194-.038L33.824,47.48ZM62.105,29.609l-.038-7.232A3.594,3.594,0,0,0,58.451,18.8l-7.213.038,5.443,5.386Z" transform="translate(-26.799 -17.324)" fill="#f0b44b"/>
    <path id="Path_2" data-name="Path 2" d="M156.713,150.967a3.594,3.594,0,0,0,3.559-3.635l-.038-7.232L149.5,151.024Z" transform="translate(-124.851 -115.54)" fill="#4eada6"/>
    <path id="Path_3" data-name="Path 3" d="M21.017,73.658a3.624,3.624,0,0,0,.038,5.1l5.12,5.081-.1-15.34Z" transform="translate(-19.987 -57.566)" fill="#de5e48"/>
    <path id="Path_4" data-name="Path 4" d="M76.633,42l5.12,5.081a3.584,3.584,0,0,0,5.081-.038L91.9,41.891l-7.632.057ZM91.744,17.168l-5.12-5.081a3.584,3.584,0,0,0-5.081.038L76.5,17.264l7.632-.057Z" transform="translate(-65.745 -11.05)" fill="#3e92d0"/>
    <path id="Path_5" data-name="Path 5" d="M186.52,72.781,181.4,67.7l.1,15.34,5.062-5.158A3.642,3.642,0,0,0,186.52,72.781Z" transform="translate(-150.68 -56.918)" fill="#de5e48"/>
    <path id="Path_6" data-name="Path 6" d="M31.358,19.357A3.594,3.594,0,0,0,27.8,22.992l.038,7.232L38.571,19.3Z" transform="translate(-26.312 -17.73)" fill="#4eada6"/>
    <path id="Path_7" data-name="Path 7" d="M285.616,82.267l-.152-26.016,4.492-.038.019,2.931.476-.609a7.1,7.1,0,0,1,5.671-2.836c4.986-.038,8.222,3.806,8.26,9.744.038,5.957-3.159,9.858-8.146,9.9a7.071,7.071,0,0,1-5.71-2.817l-.476-.59.057,10.277Zm8.926-22.591a5.755,5.755,0,0,0-4.51,2.341l-.038.076.038,6.928.038.076a5.9,5.9,0,0,0,4.549,2.322c3.026-.019,5.12-2.455,5.1-5.919C299.7,62.017,297.568,59.657,294.542,59.676ZM269.61,75.511c-5.158.038-8.774-4-8.812-9.782s3.54-9.82,8.7-9.858a7.13,7.13,0,0,1,5.71,2.76l.476.609V56.269l4.606-.038L280.4,74.94l-4.606.038-.019-2.969-.476.609A7.086,7.086,0,0,1,269.61,75.511Zm1.484-15.682a5.864,5.864,0,0,0,.076,11.724,5.821,5.821,0,0,0,4.511-2.379l.038-.076-.038-6.928-.038-.076A5.76,5.76,0,0,0,271.095,59.828Zm37.283,22.286-.152-26,4.491-.019.019,2.931.476-.609a7.1,7.1,0,0,1,5.671-2.836c4.986-.038,8.222,3.787,8.26,9.744s-3.159,9.858-8.146,9.9a7.071,7.071,0,0,1-5.71-2.817l-.476-.59L312.87,82.1ZM317.3,59.543a5.755,5.755,0,0,0-4.511,2.341l-.057.076.038,6.928.038.076a5.959,5.959,0,0,0,4.549,2.322c3.026-.019,5.12-2.455,5.1-5.919C322.461,61.884,320.349,59.524,317.3,59.543Zm26.7,15.035-.057-11.343c-.019-2.588-1.256-3.844-3.806-3.825a5.885,5.885,0,0,0-4.549,2.36l-.057.076.076,12.808-4.491.019-.114-18.689,4.491-.038.019,2.931.476-.552a8.69,8.69,0,0,1,6.471-2.893c3.825-.019,5.976,2.036,6.014,5.824l.076,13.3Zm18.118.362c-5.862.038-9.973-3.978-10.011-9.782a9.494,9.494,0,0,1,9.573-9.858c5.576-.038,9.345,4.073,9.383,10.22v.933l-14.255.1.057.3c.438,2.741,2.7,4.511,5.786,4.491a8.324,8.324,0,0,0,5.005-1.77l1.96,2.874A11.61,11.61,0,0,1,362.124,74.94ZM361.7,58.9a4.686,4.686,0,0,0-4.91,4.377l-.038.3,10.011-.057-.038-.285A4.658,4.658,0,0,0,361.7,58.9Z" transform="translate(-214.968 -46.877)"/>
    <path id="Path_8" data-name="Path 8" d="M859.569,75.627l-4.549-6.68-4.492,6.737L845.6,75.7l6.566-9.649-6.28-9.04L850.853,57l4.13,6.071,4.035-6.128,4.967-.038-6.128,9.135,6.68,9.554Z" transform="translate(-688.472 -48.174)"/>
    <path id="Path_9" data-name="Path 9" d="M963.974,53.5c-3.388.019-5.12-1.656-5.138-4.986l-.057-10.258-3.159.019-.019-3.882,3.159-.019-.038-5.253,4.491-.019.038,5.253,3.882-.019.019,3.882h-3.9l.057,8.907c0,1.427.818,2.417,2.017,2.4a3.187,3.187,0,0,0,1.6-.419l.932,3.292A6.205,6.205,0,0,1,963.974,53.5Z" transform="translate(-777.537 -25.665)"/>
  </g>
  <g id="Group_15" data-name="Group 15" transform="translate(93.562 35.7)">
    <g id="Group_14" data-name="Group 14" transform="translate(17.186)">
      <g id="Group_13" data-name="Group 13">
        <g id="Group_12" data-name="Group 12">
          <g id="Group_11" data-name="Group 11">
            <g id="Group_4" data-name="Group 4" transform="translate(18.531)">
              <g id="Group_2" data-name="Group 2" transform="translate(0 1.916)">
                <path id="Path_10" data-name="Path 10" d="M699.618,208.719a.411.411,0,0,0-.343.476.436.436,0,0,0,.457.381,1.231,1.231,0,0,1,.971.285,1.479,1.479,0,0,1,.514.933.405.405,0,1,0,.8-.114,2.329,2.329,0,0,0-.818-1.523,2.108,2.108,0,0,0-1.58-.438" transform="translate(-699.269 -208.7)" fill="#ea8f4e"/>
              </g>
              <g id="Group_3" data-name="Group 3" transform="translate(0.171)">
                <path id="Path_11" data-name="Path 11" d="M700.518,198.664a.42.42,0,0,0-.342.495.407.407,0,0,0,.457.362,2.69,2.69,0,0,1,2.969,2.455.407.407,0,0,0,.457.362.426.426,0,0,0,.343-.476,3.539,3.539,0,0,0-3.883-3.2" transform="translate(-700.169 -198.632)" fill="#ea8f4e"/>
              </g>
            </g>
            <g id="Group_10" data-name="Group 10" transform="translate(0 4.542)">
              <g id="Group_5" data-name="Group 5" transform="translate(18.156 0.076)">
                <path id="Path_12" data-name="Path 12" d="M699.26,231.521a1.984,1.984,0,0,1-1.96-2.074v-6.261a.255.255,0,0,1,.266-.286h.4c.171,0,.266.1.266.286v6.261a1.11,1.11,0,0,0,1.047,1.18A1,1,0,0,0,700,230.3c.171-.152.285-.171.438-.057l.228.19a.28.28,0,0,1,.057.4,1.925,1.925,0,0,1-1.465.685" transform="translate(-697.3 -222.9)" fill="#246eb4"/>
              </g>
              <g id="Group_6" data-name="Group 6" transform="translate(5.843)">
                <path id="Path_13" data-name="Path 13" d="M636.768,223.2a1.809,1.809,0,0,0-1.446-.7,1.877,1.877,0,0,0-1.389.59,2.153,2.153,0,0,0-.571,1.484v.419a.242.242,0,0,1-.228.133h-.266c-.171,0-.266.1-.266.285v.285a.255.255,0,0,0,.266.285h.266a.242.242,0,0,1,.228.133v4.72c0,.19.1.285.266.285h.4a.273.273,0,0,0,.209-.1.285.285,0,0,0,.1-.228v-4.53c0-.19.1-.285.266-.285h.99c.171,0,.266-.1.266-.285v-.285a.255.255,0,0,0-.266-.285h-.99a.255.255,0,0,1-.266-.285v-.3a1.26,1.26,0,0,1,.324-.856.945.945,0,0,1,.685-.285,1,1,0,0,1,.723.324c.171.152.285.171.438.057l.019-.019.209-.152a.3.3,0,0,0,.038-.4" transform="translate(-632.6 -222.5)" fill="#246eb4"/>
              </g>
              <g id="Group_7" data-name="Group 7" transform="translate(11.724)">
                <path id="Path_14" data-name="Path 14" d="M667.668,223.2a1.809,1.809,0,0,0-1.446-.7,1.876,1.876,0,0,0-1.389.59,2.153,2.153,0,0,0-.571,1.484v.419a.242.242,0,0,1-.228.133h-.266c-.171,0-.266.1-.266.285v.285a.255.255,0,0,0,.266.285h.266a.242.242,0,0,1,.228.133v4.72c0,.19.1.285.266.285h.4a.273.273,0,0,0,.209-.1.285.285,0,0,0,.1-.228v-4.53c0-.19.1-.285.266-.285h.875c.171,0,.266-.1.266-.285v-.285a.255.255,0,0,0-.266-.285H665.5a.255.255,0,0,1-.266-.285v-.3a1.26,1.26,0,0,1,.323-.856.946.946,0,0,1,.685-.285,1,1,0,0,1,.723.324c.171.152.286.171.438.057l.019-.019.209-.152a.279.279,0,0,0,.038-.4" transform="translate(-663.5 -222.5)" fill="#246eb4"/>
              </g>
              <g id="Group_8" data-name="Group 8" transform="translate(0 2.493)">
                <path id="Path_15" data-name="Path 15" d="M603.993,235.6h-.114a2.4,2.4,0,0,0-1.351.381.321.321,0,0,0-.152.266.2.2,0,0,0,.038.133l.152.3c.076.152.171.228.343.133a1.958,1.958,0,0,1,.971-.266h0a1.093,1.093,0,0,1,1.047,1.161v.3a.255.255,0,0,1-.266.285h-2.227a.5.5,0,0,0-.533.571v.875h0a2.013,2.013,0,0,0,1.751,2.074h.228a.781.781,0,0,0,.209-.019h.038c.057,0,.114-.019.171-.019h.019a1.676,1.676,0,0,0,.609-.247c.057-.038.114-.038.171.057a.223.223,0,0,0,.19.114h.3c.171,0,.266-.1.266-.285v-3.711a2.025,2.025,0,0,0-1.865-2.113m.875,4.549v.019c0,.019-.019.019-.019.038a1.046,1.046,0,0,1-.59.647,1.113,1.113,0,0,1-.362.076,1.093,1.093,0,0,1-1.047-1.161h0a1.127,1.127,0,0,1,.133-.552.276.276,0,0,1,.133-.038h1.58a.275.275,0,0,1,.133.038,1.4,1.4,0,0,1,.133.571,3.184,3.184,0,0,0-.1.362" transform="translate(-601.9 -235.6)" fill="#246eb4"/>
              </g>
              <g id="Group_9" data-name="Group 9" transform="translate(23.428 2.455)">
                <path id="Path_16" data-name="Path 16" d="M726.884,241.642H727a2.4,2.4,0,0,0,1.351-.381.389.389,0,0,0,.171-.266.205.205,0,0,0-.038-.133l-.152-.3c-.076-.152-.171-.209-.323-.133a1.976,1.976,0,0,1-.99.266h0a1.1,1.1,0,0,1-1.047-1.18v-.3a.255.255,0,0,1,.266-.285h2.189a.511.511,0,0,0,.533-.571v-.875h0a2.013,2.013,0,0,0-1.751-2.074h-.228a.78.78,0,0,0-.209.019h-.038c-.057,0-.114.019-.171.019h-.019a1.836,1.836,0,0,0-.609.247c-.057.038-.114.038-.171-.057a.223.223,0,0,0-.19-.114h-.3c-.171,0-.266.1-.266.285v3.711a2.047,2.047,0,0,0,1.884,2.132m-.875-4.53v-.019c0-.019.019-.019.019-.038a1.076,1.076,0,0,1,.609-.647,1.112,1.112,0,0,1,.362-.076,1.093,1.093,0,0,1,1.047,1.161h0a1.127,1.127,0,0,1-.133.552.275.275,0,0,1-.133.038H726.2a.275.275,0,0,1-.133-.038,1.365,1.365,0,0,1-.114-.552,1.32,1.32,0,0,1,.057-.381" transform="translate(-725 -235.4)" fill="#246eb4"/>
              </g>
            </g>
          </g>
        </g>
      </g>
    </g>
    <path id="Path_17" data-name="Path 17" d="M515.14,243.5a.863.863,0,1,0-1.694.114,1.953,1.953,0,0,1-1.332-.457,1.5,1.5,0,0,1-.514-1.161,1.551,1.551,0,0,1,.647-1.332,3.046,3.046,0,0,1,1.846-.476h.914v-.438a1.064,1.064,0,0,0-.285-.78,1.212,1.212,0,0,0-.875-.285,1.326,1.326,0,0,0-.837.247.756.756,0,0,0-.343.609h-.952a1.37,1.37,0,0,1,.285-.8,2.032,2.032,0,0,1,.8-.609,2.666,2.666,0,0,1,1.1-.228,2.143,2.143,0,0,1,1.485.476,1.681,1.681,0,0,1,.552,1.313v2.531a2.92,2.92,0,0,0,.19,1.2v.076Zm-1.561-.7a1.681,1.681,0,0,0,.837-.228,1.311,1.311,0,0,0,.571-.59V240.85h-.742c-1.161,0-1.732.343-1.732,1.009a.85.85,0,0,0,.285.685A1.315,1.315,0,0,0,513.579,242.791Z" transform="translate(-511.6 -230.427)"/>
    <path id="Path_18" data-name="Path 18" d="M545.856,237.914l.038.685a2,2,0,0,1,1.656-.8c1.161,0,1.751.647,1.751,1.96V243.4h-.932V239.76a1.266,1.266,0,0,0-.267-.875,1.087,1.087,0,0,0-.837-.285,1.288,1.288,0,0,0-.8.247,1.6,1.6,0,0,0-.533.647v3.921H545v-5.5Z" transform="translate(-538.643 -230.346)"/>
    <path id="Path_19" data-name="Path 19" d="M781.355,242.829a1.293,1.293,0,0,0,.875-.3,1.14,1.14,0,0,0,.419-.761h.895a1.766,1.766,0,0,1-.324.894,2.255,2.255,0,0,1-1.865.933,2.284,2.284,0,0,1-1.789-.742,3,3,0,0,1-.666-2.055v-.152a3.413,3.413,0,0,1,.285-1.427,2.2,2.2,0,0,1,.837-.971,2.41,2.41,0,0,1,1.313-.343,2.283,2.283,0,0,1,1.542.552,1.98,1.98,0,0,1,.647,1.446h-.894a1.3,1.3,0,0,0-.4-.875,1.25,1.25,0,0,0-.894-.343,1.289,1.289,0,0,0-1.1.514,2.378,2.378,0,0,0-.4,1.484v.171a2.355,2.355,0,0,0,.4,1.465A1.349,1.349,0,0,0,781.355,242.829Z" transform="translate(-728.028 -230.427)"/>
    <path id="Path_20" data-name="Path 20" d="M810.3,240.779a3.234,3.234,0,0,1,.324-1.446,2.267,2.267,0,0,1,.895-.99,2.482,2.482,0,0,1,1.294-.343,2.387,2.387,0,0,1,1.827.78,3,3,0,0,1,.685,2.074v.057a3.285,3.285,0,0,1-.3,1.446,2.335,2.335,0,0,1-.875.99,2.514,2.514,0,0,1-1.313.362,2.319,2.319,0,0,1-1.808-.78,2.98,2.98,0,0,1-.685-2.055v-.1Zm.952.114a2.312,2.312,0,0,0,.419,1.465,1.39,1.39,0,0,0,1.142.552,1.356,1.356,0,0,0,1.142-.571,2.557,2.557,0,0,0,.419-1.58,2.354,2.354,0,0,0-.438-1.465,1.356,1.356,0,0,0-1.142-.571,1.379,1.379,0,0,0-1.123.552A2.719,2.719,0,0,0,811.252,240.893Z" transform="translate(-753.452 -230.508)"/>
    <path id="Path_21" data-name="Path 21" d="M846.475,237.914l.019.609a2.026,2.026,0,0,1,1.637-.7,1.593,1.593,0,0,1,1.58.875,2.162,2.162,0,0,1,.723-.647,2.03,2.03,0,0,1,1.047-.247c1.2,0,1.827.647,1.846,1.922v3.692h-.933v-3.635a1.267,1.267,0,0,0-.266-.875,1.193,1.193,0,0,0-.914-.285,1.26,1.26,0,0,0-.875.3,1.294,1.294,0,0,0-.4.837v3.654h-.952v-3.6a1.054,1.054,0,0,0-1.18-1.2,1.288,1.288,0,0,0-1.275.78v4.016H845.6v-5.5Z" transform="translate(-782.034 -230.346)"/>
    <path id="Path_22" data-name="Path 22" d="M900.944,240.812a3.293,3.293,0,0,1-.571,2.017,1.822,1.822,0,0,1-1.561.761,2.036,2.036,0,0,1-1.58-.628v2.645H896.3V238h.856l.038.609a1.924,1.924,0,0,1,1.6-.7,1.854,1.854,0,0,1,1.561.742,3.358,3.358,0,0,1,.571,2.074v.1Zm-.952-.1a2.393,2.393,0,0,0-.4-1.465,1.269,1.269,0,0,0-1.085-.533,1.361,1.361,0,0,0-1.275.761v2.626a1.4,1.4,0,0,0,1.294.761,1.268,1.268,0,0,0,1.085-.533A2.989,2.989,0,0,0,899.992,240.717Z" transform="translate(-823.085 -230.427)"/>
    <path id="Path_23" data-name="Path 23" d="M932.44,243.5a.864.864,0,1,0-1.694.114,1.952,1.952,0,0,1-1.332-.457,1.5,1.5,0,0,1-.514-1.161,1.551,1.551,0,0,1,.647-1.332,3.046,3.046,0,0,1,1.846-.476h.914v-.438a1.064,1.064,0,0,0-.286-.78,1.212,1.212,0,0,0-.875-.285,1.326,1.326,0,0,0-.837.247.757.757,0,0,0-.343.609h-.952a1.37,1.37,0,0,1,.285-.8,2.031,2.031,0,0,1,.8-.609,2.665,2.665,0,0,1,1.1-.228,2.143,2.143,0,0,1,1.485.476,1.681,1.681,0,0,1,.552,1.313v2.531a2.921,2.921,0,0,0,.19,1.2v.076Zm-1.561-.7a1.681,1.681,0,0,0,.837-.228,1.312,1.312,0,0,0,.571-.59V240.85h-.742c-1.161,0-1.732.343-1.732,1.009a.809.809,0,0,0,.3.685A1.257,1.257,0,0,0,930.879,242.791Z" transform="translate(-849.481 -230.427)"/>
    <path id="Path_24" data-name="Path 24" d="M963.175,237.914l.038.685a2,2,0,0,1,1.656-.8c1.161,0,1.751.647,1.751,1.96V243.4h-.952V239.76a1.266,1.266,0,0,0-.266-.875,1.087,1.087,0,0,0-.837-.285,1.288,1.288,0,0,0-.8.247,1.6,1.6,0,0,0-.533.647v3.921H962.3v-5.5Z" transform="translate(-876.524 -230.346)"/>
    <path id="Path_25" data-name="Path 25" d="M994.4,242.53l1.275-4.13h1.009l-2.208,6.338c-.343.914-.895,1.37-1.637,1.37l-.171-.019-.342-.057v-.761l.247.019a1.19,1.19,0,0,0,.742-.19,1.447,1.447,0,0,0,.438-.7l.209-.552L992,238.4h1.028Z" transform="translate(-900.572 -230.831)"/>
  </g>
</svg>
